<svg width="772.0000000000001" height="652" xmlns="http://www.w3.org/2000/svg" preserveAspectRatio="xMidYMid meet" version="1.0">

 <g>
  <title>Layer 1</title>
  <g id="svg_31">
   <g id="svg_28">
    <path fill="#5B9BA2" id="svg_2" d="m265.23983,2.73749c-1.69983,0.30906 -6.95387,1.39077 -11.58978,2.31796c-18.8527,3.70873 -37.7054,18.69817 -46.05004,36.46916c-3.5542,7.72652 -4.17232,10.97165 -4.17232,23.64314c0,13.13508 0.46359,15.60756 4.48138,23.64314c7.1084,14.06226 22.4069,26.73375 40.48695,33.53308c5.71762,2.16342 4.48138,0.77265 -3.24514,-3.70873c-10.199,-6.02668 -23.02502,-19.16176 -27.96999,-28.74264c-3.70873,-7.26293 -4.32685,-10.35353 -4.32685,-21.63425c-0.15453,-11.74431 0.30906,-14.06226 4.79044,-22.56143c10.66259,-20.398 28.89717,-30.13342 60.88495,-32.45137c15.45303,-1.08171 31.67872,1.85436 44.65927,8.19011c12.2079,5.87215 28.58811,23.02502 36.77822,38.32352c8.34464,15.91662 6.95387,7.88105 -2.00889,-10.97165c-15.14397,-31.52419 -36.46916,-45.12286 -72.62926,-46.20457c-9.27182,-0.30906 -18.38911,-0.30906 -20.08894,0.15453z"/>
    <path fill="#5B9BA2" id="svg_3" d="m296.30043,42.76085c-8.49917,4.79044 -16.22569,9.27182 -17.46193,10.35353c-1.69983,1.39077 -3.09061,0.92718 -6.6448,-1.5453c-8.03558,-6.02668 -13.28961,-2.93608 -11.89884,6.95387c0.61812,5.71762 0.15453,6.33574 -15.76209,22.71596c-15.45303,15.91662 -15.91662,16.38022 -6.49027,9.27182c5.40856,-4.17232 13.13508,-10.50806 16.99834,-14.06226l7.26293,-6.33574l3.5542,10.199c1.85436,5.71762 8.96276,21.47972 15.76209,35.07839c12.36243,24.72485 16.68928,38.32352 14.83491,45.89551c-2.16342,8.49917 -18.08005,19.62535 -54.54921,38.16899l-18.8527,9.42635l-12.05337,-3.86326c-6.49027,-2.16342 -12.2079,-3.70873 -12.36243,-3.39967c-0.30906,0.30906 3.39967,2.78155 8.34464,5.56309c4.94497,2.78155 9.58088,6.49027 10.35353,8.34464c1.08171,2.31796 3.39967,3.70873 7.72652,4.32685c3.39967,0.46359 9.27182,2.78155 13.13508,4.94497c8.96276,5.40856 10.81712,5.25403 5.56309,-0.30906l-4.17232,-4.32685l10.50806,-0.92718c5.71762,-0.61812 23.79767,-1.08171 40.17789,-1.08171l29.66983,0l1.69983,6.02668c3.24514,12.2079 15.2985,17.15287 34.76933,14.21679l9.27182,-1.39077l26.11563,19.47082l26.11563,19.47082l-10.35353,3.86326c-5.56309,2.00889 -10.04447,4.01779 -9.58088,4.32685c0.30906,0.30906 6.18121,-0.30906 12.82602,-1.5453c7.72652,-1.23624 13.7532,-1.5453 16.07116,-0.77265c2.62702,0.92718 4.17232,0.77265 5.25403,-0.77265c0.77265,-1.08171 7.57199,-2.93608 15.14397,-4.01779c7.41746,-1.08171 13.44414,-2.31796 13.13508,-2.62702c-0.30906,-0.30906 -6.79933,-0.61812 -14.37132,-0.92718l-13.7532,-0.46359l-2.78155,-13.13508c-3.86326,-18.23458 -3.24514,-44.35021 1.08171,-50.22236c2.47249,-3.39967 14.68038,-8.6537 63.04838,-27.35187c53.62203,-20.70707 60.26683,-22.87049 62.58479,-20.8616c1.39077,1.23624 7.57199,4.79044 13.44414,7.88105l10.81712,5.87215l-7.72652,-7.26293c-4.17232,-3.86326 -9.58088,-8.19011 -11.89884,-9.58088c-2.31796,-1.39077 -4.48138,-3.86326 -4.79044,-5.40856c-0.61812,-1.85436 -2.16342,-2.78155 -5.25403,-2.78155c-2.47249,0 -5.0995,-0.61812 -5.87215,-1.39077c-2.00889,-1.85436 -24.26126,-9.73541 -25.03391,-8.80823c-0.30906,0.30906 3.09061,2.78155 7.57199,5.40856l8.19011,4.79044l-65.67539,0c-71.54755,0 -75.10174,-0.30906 -91.94555,-8.80823c-5.25403,-2.78155 -25.34298,-19.16176 -53.15844,-43.57756l-44.65927,-39.25071l8.03558,-5.40856c15.2985,-10.66259 26.27016,-18.8527 24.87938,-18.8527c-0.92718,0 -8.49917,3.86326 -16.84381,8.49917zm50.99501,160.71155c14.68038,4.32685 26.88828,15.14397 24.41579,21.63425c-0.46359,1.23624 -3.5542,2.93608 -6.6448,3.86326c-12.67149,3.39967 -36.93275,-7.72652 -40.79601,-18.69817c-1.08171,-3.24514 0.46359,-5.56309 5.0995,-7.41746c5.40856,-2.16342 9.11729,-2.00889 17.92552,0.61812z"/>
    <path fill="#DDDDDD" id="svg_4" d="m342.04141,209.19002c-5.0995,5.0995 0.92718,13.59867 9.73541,13.59867c7.41746,0 10.04447,-4.94497 5.87215,-10.66259c-3.39967,-4.48138 -12.36243,-6.18121 -15.60756,-2.93608z"/>
    <path fill="#5B9BA2" id="svg_5" d="m547.72129,109.05436c-9.27182,2.31796 -22.56143,8.6537 -29.0517,13.90773c-4.48138,3.5542 -4.32685,3.5542 9.27182,-1.08171c11.89884,-4.01779 16.22569,-4.79044 30.13342,-4.79044c13.59867,-0.15453 17.77099,0.46359 26.11563,3.5542c18.69817,7.1084 27.81546,21.32519 22.56143,35.07839c-1.39077,3.5542 -4.32685,8.49917 -6.6448,10.81712c-5.71762,5.71762 -21.32519,12.82602 -37.39634,16.99834c-10.50806,2.78155 -12.36243,3.5542 -9.27182,4.48138c5.25403,1.23624 26.42469,-1.39077 36.31463,-4.63591c11.12618,-3.70873 19.31629,-9.73541 24.72485,-18.54364c4.01779,-6.6448 4.63591,-8.80823 4.48138,-18.08005c-0.30906,-9.42635 -0.92718,-11.58978 -5.87215,-19.00723c-6.02668,-9.11729 -15.14397,-14.83491 -29.51529,-18.69817c-9.42635,-2.62702 -25.18845,-2.62702 -35.85104,0z"/>
    <path fill="#5B9BA2" id="svg_6" d="m189.21091,188.63749c-18.08005,4.63591 -24.57032,23.33408 -13.44414,39.09618c9.27182,13.13508 34.46027,22.09784 51.61313,18.38911c7.72652,-1.69983 21.01613,-7.57199 19.77988,-8.6537c-0.30906,-0.46359 -4.94497,0 -10.199,0.77265c-22.87049,3.70873 -52.38578,-9.73541 -55.16733,-25.34298c-2.16342,-10.81712 5.0995,-16.53475 25.03391,-19.93441c9.11729,-1.5453 11.12618,-2.31796 8.19011,-3.09061c-7.41746,-1.85436 -20.8616,-2.47249 -25.80657,-1.23624z"/>
    <path fill="#5B9BA2" id="svg_7" d="m468.75629,269.30232c5.56309,7.57199 6.79933,12.82602 3.86326,17.46193c-6.02668,9.11729 -28.58811,14.52585 -48.52253,11.74431c-12.98055,-1.69983 -22.09784,-5.87215 -28.43358,-12.82602c-5.0995,-5.56309 -5.71762,-3.5542 -1.5453,4.79044c3.86326,7.57199 6.95387,10.199 17.77099,15.14397c10.81712,4.94497 30.28795,6.6448 42.34131,3.70873c21.01613,-4.94497 33.06949,-21.47972 24.72485,-33.99667c-2.00889,-2.78155 -6.02668,-6.6448 -8.96276,-8.34464l-5.40856,-3.09061l4.17232,5.40856z"/>
   </g>
   <g id="svg_29">
    <path fill="#999999" id="svg_8" d="m85.21199,469.26458l0,85.76434l43.26849,0l43.26849,0l0,-13.13508l0,-13.13508l-30.13342,0l-30.13342,0l0,-72.62926l0,-72.62926l-13.13508,0l-13.13508,0l0,85.76434z"/>
    <path fill="#999999" id="svg_9" d="m193.38323,469.26458l0,85.76434l13.13508,0l13.13508,0l0,-85.76434l0,-85.76434l-13.13508,0l-13.13508,0l0,85.76434z"/>
    <path fill="#999999" id="svg_10" d="m247.46884,469.26458l0,85.91887l12.82602,-0.46359l12.67149,-0.46359l0.46359,-36.77822l0.30906,-36.62369l24.10673,0l23.9522,0l-0.46359,-12.82602l-0.46359,-12.67149l-23.48861,-0.46359l-23.64314,-0.46359l0,-22.25237l0,-22.4069l30.59701,-0.30906l30.44248,-0.46359l0.46359,-12.82602l0.46359,-12.67149l-44.19568,0l-44.04115,0l0,85.76434z"/>
    <path fill="#999999" id="svg_11" d="m355.64008,469.26458l0,85.76434l43.73209,-0.30906l43.57756,-0.46359l0.46359,-12.82602l0.46359,-12.67149l-31.0606,0l-30.90607,0l0,-23.9522l0,-23.9522l23.9522,0l24.10673,0l-0.46359,-12.82602l-0.46359,-12.67149l-23.48861,-0.46359l-23.64314,-0.46359l0,-22.25237l0,-22.4069l30.59701,-0.30906l30.44248,-0.46359l0.46359,-12.82602l0.46359,-12.67149l-44.19568,0l-44.04115,0l0,85.76434z"/>
    <path fill="#999999" id="svg_12" d="m524.07815,469.26458l0,85.76434l13.13508,0l13.13508,0l0,-85.76434l0,-85.76434l-13.13508,0l-13.13508,0l0,85.76434z"/>
    <path fill="#999999" id="svg_13" d="m576.92753,468.80099l0.46359,85.45528l12.82602,0.46359l12.67149,0.46359l0,-60.42136c0,-33.06949 0.46359,-60.26683 1.23624,-60.26683c0.61812,0.15453 17.3074,27.19734 37.08728,60.26683l36.00557,60.26683l12.98055,0l13.13508,0l0,-85.76434l0,-85.76434l-13.13508,0l-13.13508,0l-0.30906,59.64871l-0.46359,59.80324l-35.54198,-59.80324l-35.54198,-59.64871l-14.37132,0l-14.21679,0l0.30906,85.30075z"/>
   </g>
   <g id="svg_30">
    <path fill="#999999" id="svg_14" d="m83.66669,583.61703c0,5.40856 0,5.40856 6.95387,5.40856l6.95387,0l0,30.13342l0,30.13342l5.40856,0l5.40856,0l0.30906,-29.82436l0.46359,-29.66983l7.41746,-0.46359c7.41746,-0.46359 7.41746,-0.61812 6.95387,-5.40856l-0.46359,-4.94497l-19.62535,-0.46359l-19.77988,-0.46359l0,5.56309z"/>
    <path fill="#999999" id="svg_15" d="m133.11639,613.75045l0,35.69651l5.0995,-0.46359l4.94497,-0.46359l0.46359,-14.37132l0.46359,-14.21679l13.7532,0l13.90773,0l0,14.68038l0,14.68038l5.40856,0l5.40856,0l0,-35.54198l0,-35.54198l-5.40856,0l-5.40856,0l0,15.45303l0,15.45303l-13.90773,0l-13.7532,0l-0.46359,-15.14397l-0.46359,-14.98944l-4.94497,-0.46359l-5.0995,-0.46359l0,35.69651z"/>
    <path fill="#999999" id="svg_16" d="m194.92853,613.75045l0,35.54198l5.40856,0l5.40856,0l0,-35.54198l0,-35.54198l-5.40856,0l-5.40856,0l0,35.54198z"/>
    <path fill="#999999" id="svg_17" d="m216.56278,613.59592l0,35.69651l5.40856,0l5.40856,0l0,-14.68038l0,-14.68038l6.18121,0l6.02668,0l7.41746,14.21679c7.26293,13.90773 7.57199,14.37132 13.28961,14.83491c3.09061,0.30906 5.71762,0 5.71762,-0.61812c0,-0.61812 -3.39967,-7.57199 -7.72652,-15.45303l-7.57199,-14.37132l5.25403,-5.25403c6.79933,-6.79933 8.49917,-15.14397 4.48138,-22.56143c-5.25403,-9.58088 -9.42635,-11.43525 -27.66093,-12.2079l-16.22569,-0.77265l0,35.85104zm31.67872,-20.70707c8.19011,8.03558 1.69983,16.22569 -12.51696,16.22569l-8.34464,0l0,-10.04447l0,-10.04447l8.49917,0c7.1084,0 9.27182,0.61812 12.36243,3.86326z"/>
    <path fill="#999999" id="svg_18" d="m272.1937,613.59592l0,35.69651l10.50806,0c14.68038,0 24.57032,-3.24514 31.52419,-10.35353c7.41746,-7.57199 10.50806,-15.2985 10.50806,-25.9611c0,-10.35353 -3.70873,-18.38911 -11.74431,-25.34298c-7.41746,-6.6448 -10.81712,-7.72652 -27.04281,-8.96276l-13.7532,-0.92718l0,35.85104zm25.03391,-23.02502c6.95387,2.00889 16.53475,12.36243 16.99834,18.23458c0.92718,17.77099 -6.6448,27.19734 -23.48861,29.20623l-7.72652,0.92718l0,-25.03391l0,-24.87938l4.32685,0c2.31796,0 6.6448,0.77265 9.88994,1.5453z"/>
    <path fill="#999999" id="svg_19" d="m372.63842,613.59592l0,35.85104l5.0995,-0.46359l4.94497,-0.46359l0.46359,-14.37132l0.46359,-14.21679l7.26293,0c17.15287,0 26.57922,-6.95387 26.57922,-19.47082c0,-15.60756 -7.26293,-21.01613 -29.66983,-21.94331l-15.14397,-0.61812l0,35.69651zm31.83325,-20.70707c3.24514,4.48138 2.62702,11.12618 -1.23624,13.7532c-2.16342,1.5453 -6.79933,2.47249 -11.58978,2.47249l-8.19011,0l0,-10.199l0,-10.199l9.42635,0.61812c6.95387,0.46359 10.04447,1.5453 11.58978,3.5542z"/>
    <path fill="#999999" id="svg_20" d="m426.72404,613.75045l0,35.54198l17.77099,0l17.77099,0l0,-5.40856l0,-5.40856l-12.36243,0l-12.36243,0l0,-10.04447l0,-10.04447l9.27182,0l9.27182,0l0,-4.63591l0,-4.63591l-9.27182,0l-9.27182,0l0,-10.04447l0,-10.04447l12.51696,0l12.36243,0l-0.46359,-5.0995l-0.46359,-4.94497l-17.3074,-0.46359l-17.46193,-0.46359l0,35.69651z"/>
    <path fill="#999999" id="svg_21" d="m469.99253,613.59592l0,35.69651l5.40856,0l5.40856,0l0,-14.68038l0,-14.68038l6.18121,0l6.18121,0l7.26293,14.68038c7.26293,14.68038 7.41746,14.68038 13.13508,14.68038c3.24514,0 5.87215,-0.46359 5.87215,-0.92718c0,-0.46359 -3.5542,-7.26293 -7.72652,-15.14397l-7.72652,-14.52585l5.0995,-5.0995c6.79933,-6.79933 8.49917,-14.98944 4.63591,-22.56143c-4.79044,-9.73541 -8.96276,-11.74431 -27.5064,-12.51696l-16.22569,-0.77265l0,35.85104zm31.67872,-20.70707c4.63591,4.48138 4.79044,6.95387 0.92718,11.74431c-2.16342,2.78155 -4.79044,3.5542 -12.36243,4.17232l-9.42635,0.61812l0,-10.199l0,-10.199l8.49917,0c7.1084,0 9.27182,0.61812 12.36243,3.86326z"/>
    <path fill="#999999" id="svg_22" d="m534.12262,581.14455c-12.36243,5.56309 -14.98944,20.55254 -5.40856,29.51529c2.31796,2.16342 9.11729,5.87215 15.14397,8.34464c12.36243,4.79044 14.98944,7.1084 13.59867,12.2079c-1.69983,7.1084 -14.52585,9.58088 -21.47972,4.17232c-3.86326,-3.09061 -10.81712,-3.09061 -12.67149,0c-1.23624,2.16342 5.56309,9.27182 11.12618,11.58978c10.97165,4.63591 22.87049,2.00889 30.28795,-6.79933c8.49917,-10.04447 4.01779,-21.94331 -10.81712,-28.58811c-18.8527,-8.49917 -19.77988,-9.11729 -19.47082,-13.90773c0.61812,-7.88105 10.199,-11.12618 19.31629,-6.49027c3.70873,2.00889 4.32685,1.85436 7.41746,-1.39077c4.01779,-4.32685 3.39967,-5.71762 -3.70873,-9.11729c-6.79933,-3.24514 -15.60756,-3.09061 -23.33408,0.46359z"/>
    <path fill="#999999" id="svg_23" d="m599.02537,579.29018c-6.02668,1.5453 -16.22569,9.88994 -20.08894,16.68928c-14.37132,24.26126 3.24514,53.4675 31.83325,53.31297c23.17955,-0.15453 40.64148,-27.04281 31.67872,-48.52253c-6.79933,-16.53475 -25.9611,-25.80657 -43.42303,-21.47972zm23.64314,13.90773c14.21679,10.50806 14.98944,28.58811 1.85436,39.55977c-9.58088,8.03558 -22.87049,7.41746 -32.29684,-1.69983c-12.67149,-12.05337 -9.42635,-31.52419 6.33574,-39.55977c6.49027,-3.24514 18.54364,-2.47249 24.10673,1.69983z"/>
    <path fill="#999999" id="svg_24" d="m652.33833,613.75045l0,35.54198l5.40856,0l5.40856,0l0,-25.18845l0,-25.03391l14.83491,25.03391c14.52585,24.72485 14.98944,25.18845 20.08894,25.18845l5.25403,0l0,-35.69651l0,-35.54198l-4.94497,0.46359l-5.0995,0.46359l-0.77265,23.64314l-0.77265,23.48861l-14.37132,-23.9522c-14.06226,-23.48861 -14.52585,-23.9522 -19.77988,-23.9522l-5.25403,0l0,35.54198z"/>
    <path fill="#999999" id="svg_25" d="m330.91523,612.20514l0,6.18121l16.22569,0l16.22569,0l0,-6.18121l0,-6.18121l-16.22569,0l-16.22569,0l0,6.18121z"/>
   </g>
  </g>
 </g>
</svg>