<svg width="772.0000000000001" height="652" xmlns="http://www.w3.org/2000/svg" preserveAspectRatio="xMidYMid meet" version="1.0">

 <g>
  <title>Layer 1</title>
  <g id="svg_28">
   <path fill="#5B9BA2" id="svg_2" d="m164.39275,38.99912c-2.90203,0.52764 -11.87193,2.37439 -19.78655,3.95731c-32.18612,6.3317 -64.37224,31.9223 -78.61856,62.26167c-6.06788,13.19103 -7.12316,18.73127 -7.12316,40.36456c0,22.42476 0.79146,26.64589 7.6508,40.36456c12.13575,24.00768 38.25399,45.64097 69.12101,57.24908c9.76136,3.69349 7.6508,1.3191 -5.54023,-6.3317c-17.41216,-10.28901 -39.30928,-32.71376 -47.75154,-49.07064c-6.3317,-12.39957 -7.38698,-17.67598 -7.38698,-36.93489c-0.26382,-20.05037 0.52764,-24.00768 8.17844,-38.51782c18.20363,-34.82433 49.33446,-51.44503 103.94534,-55.40234c26.38207,-1.84674 54.08323,3.16585 76.24417,13.98249c20.84183,10.02518 48.80682,39.30928 62.78932,65.42752c14.24632,27.17353 11.87193,13.45485 -3.42967,-18.73127c-25.85442,-53.81941 -62.26167,-77.03563 -123.99571,-78.88238c-15.82924,-0.52764 -31.39466,-0.52764 -34.29669,0.26382z"/>
   <path fill="#5B9BA2" id="svg_3" d="m217.4207,107.32867c-14.51014,8.17844 -27.70117,15.82924 -29.81173,17.67598c-2.90203,2.37439 -5.27641,1.58292 -11.34429,-2.63821c-13.71867,-10.28901 -22.68858,-5.01259 -20.31419,11.87193c1.05528,9.76136 0.26382,10.81665 -26.90971,38.78164c-26.38207,27.17353 -27.17353,27.96499 -11.08047,15.82924c9.23372,-7.12316 22.42476,-17.9398 29.02027,-24.00768l12.39957,-10.81665l6.06788,17.41216c3.16585,9.76136 15.3016,36.67107 26.90971,59.88729c21.10565,42.2113 28.49263,65.42752 25.32678,78.35473c-3.69349,14.51014 -30.86702,33.50522 -93.12869,65.1637l-32.18612,16.09306l-20.57801,-6.59552c-11.08047,-3.69349 -20.84183,-6.3317 -21.10565,-5.80405c-0.52764,0.52764 5.80405,4.74877 14.24632,9.49754c8.44226,4.74877 16.35688,11.08047 17.67598,14.24632c1.84674,3.95731 5.80405,6.3317 13.19103,7.38698c5.80405,0.79146 15.82924,4.74877 22.42476,8.44226c15.3016,9.23372 18.46745,8.9699 9.49754,-0.52764l-7.12316,-7.38698l17.9398,-1.58292c9.76136,-1.05528 40.62838,-1.84674 68.59337,-1.84674l50.65357,0l2.90203,10.28901c5.54023,20.84183 26.11824,29.28409 59.35965,24.2715l15.82924,-2.37439l44.58569,33.2414l44.58569,33.2414l-17.67598,6.59552c-9.49754,3.42967 -17.14834,6.85934 -16.35688,7.38698c0.52764,0.52764 10.55283,-0.52764 21.89711,-2.63821c13.19103,-2.11057 23.48004,-2.63821 27.43735,-1.3191c4.48495,1.58292 7.12316,1.3191 8.9699,-1.3191c1.3191,-1.84674 12.92721,-5.01259 25.85442,-6.85934c12.66339,-1.84674 22.9524,-3.95731 22.42476,-4.48495c-0.52764,-0.52764 -11.60811,-1.05528 -24.53532,-1.58292l-23.48004,-0.79146l-4.74877,-22.42476c-6.59552,-31.13084 -5.54023,-75.71653 1.84674,-85.74171c4.22113,-5.80405 25.06296,-14.77396 107.63883,-46.69626c91.54577,-35.35197 102.89006,-39.04546 106.84737,-35.61579c2.37439,2.11057 12.92721,8.17844 22.9524,13.45485l18.46745,10.02518l-13.19103,-12.39957c-7.12316,-6.59552 -16.35688,-13.98249 -20.31419,-16.35688c-3.95731,-2.37439 -7.6508,-6.59552 -8.17844,-9.23372c-1.05528,-3.16585 -3.69349,-4.74877 -8.9699,-4.74877c-4.22113,0 -8.70608,-1.05528 -10.02518,-2.37439c-3.42967,-3.16585 -41.41984,-16.6207 -42.73895,-15.03778c-0.52764,0.52764 5.27641,4.74877 12.92721,9.23372l13.98249,8.17844l-112.12378,0c-122.14896,0 -128.21684,-0.52764 -156.97329,-15.03778c-8.9699,-4.74877 -43.26659,-32.71376 -90.75431,-74.39742l-76.24417,-67.01045l13.71867,-9.23372c26.11824,-18.20363 44.84951,-32.18612 42.47513,-32.18612c-1.58292,0 -14.51014,6.59552 -28.75645,14.51014zm87.06082,274.37348c25.06296,7.38698 45.90479,25.85442 41.68366,36.93489c-0.79146,2.11057 -6.06788,5.01259 -11.34429,6.59552c-21.63329,5.80405 -63.05314,-13.19103 -69.64865,-31.9223c-1.84674,-5.54023 0.79146,-9.49754 8.70608,-12.66339c9.23372,-3.69349 15.56542,-3.42967 30.6032,1.05528z"/>
   <path fill="#DDDDDD" id="svg_4" d="m295.51161,391.46351c-8.70608,8.70608 1.58292,23.21622 16.6207,23.21622c12.66339,0 17.14834,-8.44226 10.02518,-18.20363c-5.80405,-7.6508 -21.10565,-10.55283 -26.64589,-5.01259z"/>
   <path fill="#5B9BA2" id="svg_5" d="m646.65691,220.50773c-15.82924,3.95731 -38.51782,14.77396 -49.59828,23.74386c-7.6508,6.06788 -7.38698,6.06788 15.82924,-1.84674c20.31419,-6.85934 27.70117,-8.17844 51.44503,-8.17844c23.21622,-0.26382 30.33938,0.79146 44.58569,6.06788c31.9223,12.13575 47.48772,36.40725 38.51782,59.88729c-2.37439,6.06788 -7.38698,14.51014 -11.34429,18.46745c-9.76136,9.76136 -36.40725,21.89711 -63.8446,29.02027c-17.9398,4.74877 -21.10565,6.06788 -15.82924,7.6508c8.9699,2.11057 45.11333,-2.37439 61.99785,-7.91462c18.99509,-6.3317 32.97758,-16.6207 42.2113,-31.65848c6.85934,-11.34429 7.91462,-15.03778 7.6508,-30.86702c-0.52764,-16.09306 -1.58292,-19.78655 -10.02518,-32.44994c-10.28901,-15.56542 -25.85442,-25.32678 -50.38975,-31.9223c-16.09306,-4.48495 -43.00277,-4.48495 -61.20639,0z"/>
   <path fill="#5B9BA2" id="svg_6" d="m34.59299,356.37536c-30.86702,7.91462 -41.94748,39.83692 -22.9524,66.74663c15.82924,22.42476 58.83201,37.72635 88.1161,31.39466c13.19103,-2.90203 35.87961,-12.92721 33.76904,-14.77396c-0.52764,-0.79146 -8.44226,0 -17.41216,1.3191c-39.04546,6.3317 -89.4352,-16.6207 -94.18397,-43.26659c-3.69349,-18.46745 8.70608,-28.22881 42.73895,-34.03286c15.56542,-2.63821 18.99509,-3.95731 13.98249,-5.27641c-12.66339,-3.16585 -35.61579,-4.22113 -44.05805,-2.11057z"/>
   <path fill="#5B9BA2" id="svg_7" d="m511.84455,494.08975c9.49754,12.92721 11.60811,21.89711 6.59552,29.81173c-10.28901,15.56542 -48.80682,24.79914 -82.83969,20.05037c-22.16093,-2.90203 -37.72635,-10.02518 -48.543,-21.89711c-8.70608,-9.49754 -9.76136,-6.06788 -2.63821,8.17844c6.59552,12.92721 11.87193,17.41216 30.33938,25.85442c18.46745,8.44226 51.70885,11.34429 72.28686,6.3317c35.87961,-8.44226 56.45762,-36.67107 42.2113,-58.04054c-3.42967,-4.74877 -10.28901,-11.34429 -15.3016,-14.24632l-9.23372,-5.27641l7.12316,9.23372z"/>
  </g>
 </g>
</svg>